# xmcd
# 
# Track frame offsets:
#     150
#     19560
#     44182
#     66722
# 
# Disc length: 1144
# 
# Revision: 5
# Processed by: cddbd v1.5.2PL0 Copyright (c) Steve Scherf et al.
# Submitted via: fre:ac v1.0.27
# 
DISCID=39047604
DTITLE=柴咲コウ - かたちあるもの
DYEAR=2004
DGENRE=J/Pop
TTITLE0=かたち あるもの
TTITLE1=帰り道
TTITLE2=哀しみを許して
TTITLE3=かたちあるもの (Backing Track)
EXTD=YEAR: 2004
EXTT0=
EXTT1=
EXTT2=
EXTT3=
PLAYORDER=
